<svg xmlns="http://www.w3.org/2000/svg" width="2350.834" height="870.944" viewBox="0 0 2350.834 870.944">
  <defs>
    <style>
      .ade22f61-2597-435d-873f-7290475cb6c5 {
        fill: #e6a329;
      }

      .b3ef8725-9a15-4135-8ed0-27292b2997dc {
        fill: #f1bf22;
      }

      .f119af1d-feea-410d-aab5-e6514f5040f5 {
        fill: #fff;
      }

      .bbdb9881-1c49-485a-8e10-4a755f220eee {
        fill: #ebebeb;
      }

      .adcc885b-8888-4f02-8f67-f4d29ececfc0 {
        fill: #2196f3;
      }

      .a4139de5-e173-4c8e-8e52-88f06b999b80 {
        fill: #fafafa;
      }

      .e06dcee9-ef22-4d7d-99ed-62da4a3f9f4f {
        fill: #e44d26;
      }

      .a203e058-6b1a-4e9f-bdb9-c277d0122a47 {
        fill: #f16529;
      }
    </style>
  </defs>
  <title>Fichier 21</title>
  <g id="a6751775-8c4a-4d53-a374-60d95601c6ad" data-name="Calque 2">
    <g id="ada8a24d-3401-46dd-9287-ae3cfd37e5ea" data-name="Calque 1">
      <path class="ade22f61-2597-435d-873f-7290475cb6c5" d="M2350.834,0h-780.99l73.194,782.3,317.3,88.642L2277.546,782.3Z"/>
      <path class="b3ef8725-9a15-4135-8ed0-27292b2997dc" d="M1960.339,63.453V790.667l241.953-70.376,58.874-656.838Z"/>
      <path class="f119af1d-feea-410d-aab5-e6514f5040f5" d="M2152.871,157.864H1780.722L1754.8,445.327l.562-1.827h316.084l-10.3,121.619-100.806,29.8-102.4-30.285-6.084-73.644h-92.945l13.292,147.1,188.134,54.9,188.227-54.9,25.927-288.424H1838.941l4.305-96.141h232.781l3.463,55.089h93.6Z"/>
      <path class="bbdb9881-1c49-485a-8e10-4a755f220eee" d="M1960.432,157.864H1780.723L1754.8,445.327l.562-1.827H1960.34V349.762H1852.046l4.306-96.141h104.082ZM1852.045,491.09h-93.6l13.292,147,188.133,54.8V594.923l-102.4-30.381Z"/>
      <path class="adcc885b-8888-4f02-8f67-f4d29ececfc0" d="M785.39,0l71.135,783.84,319.36,87.1,319.266-86.527L1566.473.481Z"/>
      <path class="a4139de5-e173-4c8e-8e52-88f06b999b80" d="M1455.84,227.182l-10.577,111.043-31.824,332.938-237.554,61.531h0L938.518,671.067,921.95,496.955H1038.2l8.7,90.277,129.074,32.689h0l129.26-32.592,17.6-150.462-406.594,1.057L904.731,334.957l427.841-4.711,8.611-110.082-447.871,1.154L885.73,118.831h580.314Z"/>
      <path class="e06dcee9-ef22-4d7d-99ed-62da4a3f9f4f" d="M71.135,783.937,0,0H781.083L709.948,783.84l-319.922,87.1Z"/>
      <path class="a203e058-6b1a-4e9f-bdb9-c277d0122a47" d="M649.017,733.943,709.856,64.126H390.59V804.415Z"/>
      <path class="bbdb9881-1c49-485a-8e10-4a755f220eee" d="M385.957,160.268H140.728L167.122,451H385.957V354.858H256.6l-9.36-98.449H385.957Zm0,443.98h0L277.008,575.406l-6.927-76.913H171.9l13.665,150.942,200.3,54.416h0Z"/>
      <path class="f119af1d-feea-410d-aab5-e6514f5040f5" d="M386.861,451H507.323L496.185,575.983,387.142,604.825V704.908L587.631,650.3l26.863-295.251H387.235ZM629.47,186.033l2.34-25.765H386.861v96.141h236.15l2.246-21.632Z"/>
    </g>
  </g>
</svg>
